<svg width="1920" height="898" viewBox="0 0 1920 898" fill="none" xmlns="http://www.w3.org/2000/svg">
<mask id="mask0_1_551" style="mask-type:alpha" maskUnits="userSpaceOnUse" x="-1" y="0" width="1921" height="898">
<rect x="-0.00012207" width="1920" height="898" fill="#E3F1E9"/>
</mask>
<g mask="url(#mask0_1_551)">
<path d="M210.436 136.612C199.727 133.272 186.46 127.309 186.378 115.312C186.334 107.171 191.475 99.649 193.957 92.0043C198.729 77.2972 192.675 61.2193 182.426 49.7668C171.908 37.9977 156.463 29.7098 139.969 27.2479C131.868 26.0272 123.489 26.2634 115.536 28.215C107.55 30.1677 99.9076 33.7942 92.8402 37.6831C77.1146 46.3686 63.1317 57.9838 51.8381 71.2132C40.7478 84.2144 31.7627 99.3063 28.3848 115.609C26.8382 123.136 26.4682 131.009 27.9181 138.574C29.6746 147.665 34.5496 156.037 40.9535 163.075C54.0626 177.466 73.6764 187.055 93.5563 191.153C113.386 195.209 133.8 190.453 148.23 177.065C155.767 170.073 160.81 161.49 165.706 152.867C168.193 148.503 171.141 143.843 176.562 142.223C181.904 140.62 187.392 142.16 192.325 144.087C196.571 145.77 200.603 147.874 204.848 149.527C205.602 149.828 206.324 149.613 206.79 148.978C208.852 146.06 211.312 143.426 212.601 140.104C213.199 138.519 210.413 137.942 209.814 139.528C208.647 142.579 206.167 145.082 204.275 147.772C204.933 147.589 205.559 147.406 206.217 147.223C198.301 144.149 190.48 138.915 181.512 138.963C170.359 139.036 165.739 147.147 161.245 155.166C156.443 163.697 150.692 171.904 142.681 178.261C135.034 184.326 125.574 188.32 115.557 189.539C95.0415 192.052 73.114 184.073 56.873 173.091C48.5705 167.473 41.2303 160.524 36.26 152.214C31.6142 144.441 29.6644 135.903 29.8904 127.044C30.2904 110.776 37.5251 95.1041 47.1588 81.6023C57.2584 67.4651 70.503 55.0162 85.5134 45.2008C98.9533 36.4253 114.484 28.7508 131.382 29.1163C148.215 29.4838 164.595 36.6189 176.299 47.4785C187.654 58.0389 195.565 73.9544 191.808 89.0135C189.894 96.7141 185.173 103.676 183.799 111.522C182.317 120.081 186.749 127.758 194.396 132.613C199.054 135.569 204.36 137.499 209.705 139.147C211.536 139.71 212.169 137.148 210.436 136.612Z" fill="#E1D4DB"/>
<path d="M200.612 137.648C194.534 135.147 188.194 133.113 182.376 130.115C179.541 128.665 176.861 126.944 174.557 124.826C171.984 122.421 170.27 119.456 168.54 116.506C163.141 107.159 160.286 96.7391 154.215 87.7095C142.874 70.8831 121.549 60.4722 100.233 58.7059C88.3308 57.7215 76.2888 59.5245 65.5442 64.4542C63.8814 65.2175 65.3938 67.4344 67.0409 66.6864C86.4681 57.7954 110.052 60.0079 128.605 69.3965C138.475 74.3977 147.017 81.5134 152.68 90.4819C158.326 99.4066 161.123 109.547 166.513 118.598C169.833 124.177 173.728 128.435 179.735 131.767C185.874 135.155 192.735 137.291 199.257 139.971C200.933 140.658 202.304 138.349 200.612 137.648Z" fill="#E1D4DB"/>
<path d="M168.21 130.052C135.263 125.475 100.112 125.081 69.8515 111.04C61.0696 106.969 53.0781 101.734 46.2323 95.2942C44.963 94.0918 42.9966 96.0034 44.2658 97.2058C69.009 120.416 105.637 125.557 139.353 129.295C148.77 130.343 158.2 131.286 167.576 132.587C169.367 132.855 170.017 130.305 168.21 130.052Z" fill="#E1D4DB"/>
<path d="M151.8 113.961C131.376 90.7356 98.1353 78.7509 66.1558 76.5388C64.3194 76.4047 64.4171 79.0212 66.2368 79.1411C97.0787 81.2709 129.644 92.907 149.345 115.311C150.472 116.622 152.927 115.272 151.8 113.961Z" fill="#E1D4DB"/>
<path d="M123.724 108.289C110.445 106.639 98.0425 101.395 86.9109 94.7934C85.3749 93.8804 84.0207 96.2019 85.5567 97.115C96.8696 103.814 109.567 109.167 123.074 110.84C124.88 111.063 125.563 108.512 123.724 108.289Z" fill="#E1D4DB"/>
<path d="M157.581 140.692C143.345 144.575 128.699 147.761 113.781 147.435C97.8089 147.069 83.1056 142.182 69.0315 135.647C59.216 131.093 49.2267 125.642 43.3949 116.849C42.4423 115.4 39.9899 116.78 40.9425 118.228C46.0085 125.847 54.0646 131.138 62.4464 135.442C70.251 139.424 78.4489 143.025 86.9401 145.639C101.306 150.094 116.405 151.035 131.427 149.005C140.576 147.754 149.536 145.651 158.389 143.225C160.156 142.725 159.349 140.222 157.581 140.692Z" fill="#E1D4DB"/>
<path d="M152.964 151.038C142.634 161.567 129.083 169.078 113.824 171.647C96.4693 174.548 78.8797 170.951 64.7808 161.375C56.2747 155.583 49.0375 148.406 41.3314 141.775C40 140.635 38.0181 142.531 39.3661 143.686C53.6967 156.02 67.2382 170.064 87.4584 173.873C102.986 176.795 119.255 174.919 133.432 168.29C141.638 164.452 148.906 159.091 155.061 152.834C156.285 151.553 154.204 149.771 152.964 151.038Z" fill="#E1D4DB"/>
<path d="M107.829 158.963C97.6762 159.241 87.4696 157.257 79.4265 151.373C78.0001 150.324 76.0339 152.235 77.4603 153.285C86.101 159.623 96.9487 161.897 107.894 161.579C109.756 161.535 109.674 158.904 107.829 158.963Z" fill="#E1D4DB"/>
<path d="M133.52 137.025C121.156 136.9 108.991 134.875 97.0047 132.313C95.2107 131.926 94.5611 134.475 96.3551 134.862C108.57 137.476 120.994 139.522 133.585 139.64C135.449 139.655 135.368 137.055 133.52 137.025Z" fill="#E1D4DB"/>
<path d="M70.6243 123.779C64.2821 121.138 58.0223 118.539 53.3302 113.684C52.1074 112.435 50.1398 114.348 51.3625 115.597C56.2222 120.624 62.7458 123.363 69.3019 126.101C70.9451 126.789 72.3165 124.48 70.6243 123.779Z" fill="#E1D4DB"/>
<path d="M66.8938 93.8381C60.9549 91.5702 55.3233 88.76 49.3686 86.5075C47.6789 85.8656 46.3247 88.1872 48.0144 88.8291C53.9533 91.0969 59.5849 93.9071 65.5396 96.1597C67.245 96.7862 68.6001 94.4942 66.8938 93.8381Z" fill="#E1D4DB"/>
<path d="M179.611 104.655C176.372 92.322 174.085 79.2781 165.411 68.9683C156.283 58.1251 142.69 50.2807 128.171 47.055C119.728 45.1763 110.957 44.7734 102.301 45.4477C100.457 45.595 100.538 48.198 102.382 48.0507C121.943 46.5272 140.337 51.2585 155.218 62.9998C161.969 68.3225 167.085 74.8072 170.226 82.4501C173.263 89.8595 174.821 97.7302 176.861 105.408C177.301 107.052 180.035 106.285 179.611 104.655Z" fill="#E1D4DB"/>
<path d="M180.483 69.8398C176.773 63.782 173.077 57.6201 168.046 52.3595C162.914 46.9836 156.436 43.1906 148.957 41.1028C147.206 40.6104 146.555 43.1634 148.306 43.6558C155.557 45.6917 161.663 49.5113 166.548 54.7913C171.164 59.7541 174.558 65.5702 178.027 71.2209C178.933 72.6879 181.373 71.3221 180.483 69.8398Z" fill="#E1D4DB"/>
<path d="M223.574 233.231C226.329 225.471 226.112 215.913 223.105 208.277C221.03 203.02 216.265 196.179 209.007 197.666C202.65 198.976 199.984 205.95 200.067 211.225C200.171 217.15 202.018 223.419 205.367 228.502C207.016 231.007 209.247 233.464 212.218 234.745C215.338 236.095 218.633 235.813 221.718 234.488C223.397 233.769 221.886 231.555 220.223 232.258C209.162 236.985 203.819 220.39 203.068 213.451C202.589 208.987 203.315 203.168 208.179 200.723C213.712 197.931 218.413 204.286 220.026 208.227C223.112 215.787 223.526 224.939 220.787 232.684C220.221 234.269 223.009 234.846 223.574 233.231Z" fill="#E1D4DB"/>
<path d="M221.414 232.719C217.928 227.46 216.328 221.373 214.541 215.498C214.053 213.872 211.29 214.64 211.794 216.251C213.652 222.33 215.372 228.636 218.977 234.083C219.913 235.518 222.382 234.152 221.414 232.719Z" fill="#E1D4DB"/>
<path d="M202.003 239.602C197.604 236.725 193.111 233.969 188.432 231.455C183.093 228.578 177.129 225.425 170.897 224.573C168.701 224.273 166.254 224.277 164.365 225.505C162.284 226.857 161.71 229.242 161.763 231.443C161.838 234.901 162.923 238.534 165.245 241.271C167.902 244.41 171.711 246.522 175.753 247.828C184.411 250.615 196.498 250.098 201.909 242.281C202.901 240.86 200.352 239.654 199.375 241.06C195.159 247.169 185.547 247.562 178.708 245.931C174.937 245.03 171.256 243.372 168.551 240.796C166.113 238.478 164.982 235.438 164.672 232.268C164.576 231.236 164.541 230.143 164.883 229.141C165.09 228.513 165.51 227.953 165.907 227.689C167.16 226.836 169.043 226.924 170.753 227.21C176.306 228.113 181.543 230.846 186.353 233.384C189.187 234.892 191.958 236.49 194.683 238.133C195.74 238.78 196.797 239.427 197.855 240.103C198.302 240.399 198.747 240.666 199.194 240.963C199.591 241.216 199.889 241.414 200.038 241.513C201.526 242.471 203.508 240.574 202.003 239.602Z" fill="#E1D4DB"/>
<path d="M199.793 240.838C193.622 239.895 187.773 237.847 181.825 236.231C180.06 235.755 179.41 238.304 181.175 238.781C187.123 240.397 192.972 242.444 199.143 243.388C200.951 243.67 201.616 241.105 199.793 240.838Z" fill="#E1D4DB"/>
<path d="M190.572 213.188C189.421 206.42 187.941 198.967 183.103 193.499C180.146 190.161 175.746 186.794 170.989 185.998C168.953 185.664 166.821 185.909 165.242 187.231C163.425 188.753 162.947 191.106 162.819 193.24C162.507 198.812 166.358 203.838 170.762 207.322C175.581 211.134 181.882 214.144 188.361 214.545C190.196 214.65 190.098 212.035 188.28 211.944C183.555 211.665 178.87 209.551 175.066 207.097C170.947 204.432 167.104 200.708 165.939 196.085C165.2 193.179 165.556 187.961 170.063 188.513C173.999 188.98 177.687 191.851 180.247 194.447C185.152 199.455 186.614 206.834 187.705 213.264C187.984 214.912 190.85 214.836 190.572 213.188Z" fill="#E1D4DB"/>
<path d="M188.879 211.212C184.978 207.87 181.505 204.174 177.604 200.833C176.271 199.69 174.286 201.59 175.636 202.746C179.537 206.088 183.01 209.784 186.91 213.126C188.261 214.282 190.229 212.369 188.879 211.212Z" fill="#E1D4DB"/>
<path d="M1682.24 86.4554C1708.43 96.6955 1745.91 99.0391 1769.45 79.4806C1770.1 78.9504 1770.02 78.0428 1769.51 77.4923C1764.06 71.6713 1755.39 68.6822 1747.64 66.198C1738.38 63.2185 1729.25 61.3292 1719.25 61.4499C1710.03 61.5578 1701.83 63.4004 1693.5 67.4603C1689.33 69.4849 1685.33 71.8374 1681.41 74.2526C1679.66 75.3372 1677.9 76.4414 1676.16 77.5565C1674.94 78.3379 1673.3 79.0038 1672.53 80.2032C1672.08 80.911 1672.38 81.6956 1673.04 82.0907C1675.91 83.9008 1679.19 84.951 1682.24 86.4554C1683.92 87.2786 1685.52 84.8317 1683.81 83.9977C1680.77 82.4933 1677.49 81.4431 1674.62 79.6634C1674.79 80.3027 1674.96 80.9421 1675.12 81.5509C1675.64 80.7448 1678.1 79.6653 1679.08 79.0462C1680.71 78.008 1682.37 76.9805 1684.01 75.9726C1687.55 73.8054 1691.17 71.7009 1694.93 69.8831C1702.96 65.9837 1710.82 64.3301 1719.71 64.2608C1729 64.1852 1737.42 65.9692 1746.02 68.6843C1753.5 71.0283 1762.03 73.8918 1767.3 79.5155C1767.32 78.8426 1767.34 78.2001 1767.36 77.5272C1756.02 86.9395 1740.87 90.6488 1726.27 91.1304C1711.72 91.6139 1696.99 89.1456 1683.79 83.9869C1682.06 83.3229 1680.46 85.7698 1682.24 86.4554Z" fill="#DBDBDB"/>
<path d="M1677.64 81.8502C1693.3 79.1633 1709.16 78.1526 1724.94 78.0746C1731.74 78.0422 1738.51 77.7073 1745.31 77.4941C1752.41 77.2816 1759.75 77.2683 1766.43 79.4845C1768.24 80.0809 1769.08 77.345 1767.27 76.7486C1760.83 74.6314 1753.74 74.4823 1746.89 74.6434C1739.59 74.809 1732.33 75.2271 1725.03 75.262C1708.96 75.3502 1692.89 76.4338 1676.96 79.1613C1674.99 79.5046 1675.73 82.1953 1677.64 81.8502Z" fill="#DBDBDB"/>
<path d="M1758.15 80.0144C1741.83 83.533 1725.22 87.4027 1708.54 86.2361C1706.61 86.0984 1706.56 88.894 1708.48 89.0317C1725.41 90.2167 1742.3 86.2868 1758.86 82.7062C1760.78 82.2922 1760.06 79.62 1758.15 80.0144Z" fill="#DBDBDB"/>
<path d="M1734.04 69.4357C1724.52 68.6496 1715.12 69.9963 1705.67 71.5216C1703.73 71.8251 1704.47 74.5113 1706.38 74.197C1715.62 72.7142 1724.74 71.4581 1734 72.215C1735.92 72.403 1735.96 69.5932 1734.04 69.4357Z" fill="#DBDBDB"/>
<path d="M1704.08 81.5184C1700 81.1834 1695.98 80.4075 1691.86 80.4129C1691.03 80.404 1690.33 81.1141 1690.31 81.8688C1690.29 82.6431 1690.99 83.2415 1691.82 83.2308C1695.95 83.2253 1699.97 84.0012 1704.04 84.3362C1704.86 84.3954 1705.58 83.5849 1705.58 82.8804C1705.58 82.0648 1704.88 81.5972 1704.08 81.5184Z" fill="#DBDBDB"/>
<path d="M1655.52 61.0652C1684.23 59.0794 1719.01 45.5698 1730.88 18.9511C1731.23 18.1974 1730.52 17.5159 1729.85 17.2737C1722 14.4615 1712.5 15.5403 1704.22 16.6322C1695.07 17.8428 1686.54 19.7613 1678.09 23.5926C1669.61 27.4327 1662.81 32.2767 1657.05 39.2658C1654.08 42.862 1651.49 46.6998 1648.99 50.5909C1647.88 52.3224 1646.78 54.0841 1645.69 55.8263C1644.92 57.0627 1643.76 58.3248 1643.64 59.7431C1643.6 60.2885 1644.1 60.9926 1644.74 61.0647C1648.33 61.4793 1651.9 61.0278 1655.52 61.0652C1657.45 61.0833 1657.5 58.31 1655.57 58.292C1652.24 58.2445 1648.87 58.723 1645.56 58.378C1645.93 58.8286 1646.29 59.2491 1646.65 59.6996C1646.73 58.8072 1648.57 56.6733 1649.18 55.72C1650.21 54.0751 1651.23 52.4301 1652.3 50.8065C1654.57 47.3152 1656.93 43.8772 1659.62 40.6293C1665.13 33.9497 1671.86 29.4313 1679.96 25.8065C1688.04 22.2012 1696.27 20.461 1705 19.3452C1712.81 18.3461 1721.66 17.374 1729.03 20.0099C1728.68 19.4408 1728.34 18.9017 1728 18.3325C1722.28 31.1322 1710.33 40.5598 1697.36 46.9978C1684.45 53.4074 1669.96 57.3151 1655.59 58.3026C1653.65 58.4333 1653.59 61.2066 1655.52 61.0652Z" fill="#DBDBDB"/>
<path d="M1648.8 59.1656C1662.04 50.1236 1676.24 42.5177 1690.9 35.7733C1696.95 33.0022 1702.79 29.8961 1708.74 26.9726C1714.72 24.0403 1721.06 21.16 1727.75 20.3609C1729.65 20.1293 1729.72 17.3673 1727.8 17.5883C1714.66 19.1551 1703.23 27.1172 1691.49 32.4723C1676.13 39.4509 1661.2 47.3297 1647.37 56.7884C1645.81 57.867 1647.24 60.2443 1648.8 59.1656Z" fill="#DBDBDB"/>
<path d="M1720.74 24.4016C1707.82 34.0887 1694.78 44.2579 1679.32 50.0838C1677.53 50.7549 1678.22 53.4193 1680.03 52.7288C1696.02 46.7133 1709.43 36.3487 1722.8 26.3305C1724.33 25.1834 1722.25 23.274 1720.74 24.4016Z" fill="#DBDBDB"/>
<path d="M1694.21 24.6699C1685.21 27.9212 1677.38 32.8932 1669.55 38.1234C1667.96 39.1906 1669.39 41.5664 1670.98 40.4992C1678.57 35.4295 1686.19 30.4996 1694.92 27.3185C1696.74 26.6569 1696.03 24.0084 1694.21 24.6699Z" fill="#DBDBDB"/>
<path d="M1673.35 47.7346C1669.38 49.1818 1665.26 50.2148 1661.4 51.9855C1660.7 52.3199 1660.4 53.2874 1660.78 53.8991C1661.23 54.5732 1662.06 54.7222 1662.83 54.3897C1663.77 53.9439 1664.51 53.6505 1665.41 53.3129C1666.38 52.9578 1667.36 52.6328 1668.33 52.3078C1670.24 51.6862 1672.15 51.1144 1674.04 50.4323C1674.78 50.1691 1675.39 49.4722 1675.14 48.715C1674.97 48.0308 1674.16 47.4538 1673.35 47.7346Z" fill="#DBDBDB"/>
<path d="M1961.98 -61.262C1979.52 -37.3261 1993.29 -10.9165 2006.96 14.9465C2012.91 26.1902 2018.45 37.6833 2022.84 49.4999C2026.91 60.5022 2030.41 72.2543 2030.08 83.8209C2029.94 89.3318 2029.25 97.6037 2022.75 99.8915C2017.89 101.599 2011.84 99.6928 2007.03 98.3421C1998.53 95.9303 1984.52 90.0183 1978.84 99.2887C1975.77 104.329 1976.56 110.579 1977.88 116.137C1979.69 123.646 1982.63 130.916 1984.92 138.279C1987.14 145.427 1989.47 153.549 1987.45 160.829C1985.39 168.211 1977.56 173.104 1969.28 173.03C1959.75 172.929 1950.98 166.797 1943.53 161.769C1936.52 157.002 1929.39 151.373 1921.03 148.878C1912.49 146.346 1905.12 149.609 1899.02 154.8C1890.95 161.631 1885.12 170.431 1878.56 178.444C1871.96 186.516 1864.93 193.201 1854.82 197.53C1847.03 200.864 1833.98 204.876 1826.95 197.502C1819.34 189.505 1822.74 175.965 1825.36 167.084C1828.72 155.699 1833.71 144.791 1838.31 133.851C1840.14 129.491 1841.92 125.121 1843.45 120.679C1843.86 119.458 1842.44 118.337 1841.22 118.361C1832.63 118.556 1823.79 117.246 1815.42 115.211C1807.23 113.213 1797.06 110.137 1791.6 103.604C1785.19 95.9324 1791.85 87.0348 1798.5 82.1504C1807.16 75.7455 1817.9 71.9367 1827.78 67.3396C1837.81 62.6851 1849.11 56.891 1853.15 46.5904C1853.54 45.6079 1853.24 44.5552 1852.12 44.0015C1840.66 38.2219 1828.02 33.907 1817.73 26.3044C1813.82 23.4335 1809.23 19.3679 1809.5 14.4554C1809.89 7.49103 1818.75 2.53771 1824.55 -0.305873C1834.54 -5.19114 1845.72 -7.4339 1856.66 -9.94442C1864.36 -11.7284 1876.38 -12.5013 1878.66 -21.2095C1879.17 -23.2042 1878.31 -24.2141 1876.98 -25.6913C1874.69 -28.3076 1875.56 -31.7115 1875.56 -34.8898C1875.53 -36.5944 1875.08 -39.3109 1876.1 -40.8292C1877.22 -42.5507 1880.6 -43.1388 1882.52 -43.7062C1894.56 -47.3675 1907.1 -49.4961 1919.42 -52.3947C1926.24 -54.0215 1933.31 -55.0057 1940.2 -56.4866C1947.54 -58.0544 1954.85 -59.7847 1962.15 -61.515C1964.72 -62.1325 1963.34 -65.7833 1960.75 -65.1917C1947.64 -62.0749 1934.47 -59.189 1921.17 -56.7056C1914.84 -55.5314 1908.61 -53.8531 1902.33 -52.5588C1896.06 -51.2646 1889.77 -49.9279 1883.66 -48.0945C1879.19 -46.773 1872.83 -45.6929 1871.65 -40.7857C1871.06 -38.2979 1871.4 -35.5149 1871.38 -32.9589C1871.39 -29.8231 1870.82 -26.6705 1873.07 -23.995C1873.48 -23.4946 1874.58 -22.8559 1874.62 -22.276C1874.78 -19.9472 1870.24 -17.1612 1868.41 -16.5753C1863.16 -14.8566 1857.27 -14.0167 1851.82 -12.7781C1840.18 -10.1419 1828.4 -7.31164 1818.22 -1.4069C1812.73 1.76534 1806.59 6.57211 1805.44 12.8349C1804.58 17.585 1807.12 21.9946 1810.61 25.4897C1821.09 35.9752 1837.07 40.8433 1850.3 47.4591C1849.94 46.593 1849.62 45.7362 1849.26 44.8702C1845.11 55.5013 1832.51 60.8839 1822.19 65.5255C1811.65 70.3001 1799.81 74.5523 1791.65 82.5583C1785.92 88.1979 1782.1 96.6017 1786.89 104.062C1791.55 111.341 1801.27 115.1 1809.54 117.577C1819.71 120.653 1830.82 122.456 1841.43 122.199C1840.69 121.413 1839.97 120.652 1839.21 119.882C1835.44 130.877 1830.27 141.373 1826.03 152.208C1822.15 162.187 1818.02 172.912 1818.2 183.762C1818.35 192.643 1821.9 202.351 1832.34 204.818C1842.02 207.111 1852.55 203.239 1860.73 199.077C1870.56 194.095 1877.32 186.452 1883.85 178.234C1890.31 170.092 1896.5 160.437 1905.74 154.697C1914.23 149.406 1922.6 152.898 1930.57 157.875C1938.85 163.07 1946.48 169.371 1955.51 173.478C1963.83 177.268 1972.81 178.187 1980.92 174.1C1987.79 170.65 1991.54 164.487 1992.04 157.303C1993.14 141.342 1982.92 126.737 1980.9 111.13C1980.31 106.664 1980.6 99.835 1986.27 98.4208C1991.27 97.1842 1997.47 99.6039 2002.24 101.014C2012.66 104.094 2026.58 107.933 2031.76 96.2697C2035.55 87.7293 2034.28 77.1696 2032.39 68.2112C2029.81 55.8254 2025.15 43.8002 2019.79 32.1648C2014.58 20.8045 2008.6 9.73076 2002.4 -1.25253C1994.59 -15.1829 1987.23 -29.3535 1978.83 -43.003C1974.56 -49.9182 1970.05 -56.6839 1965.19 -63.2758C1963.87 -65.4343 1960.44 -63.3559 1961.98 -61.262Z" fill="#DBDBDB"/>
<path d="M1960.24 -65.6362C1952.67 -31.9366 1935.51 -0.953831 1919.91 29.8043C1911.73 45.8958 1903.82 62.128 1895.36 78.0955C1886.43 94.9449 1877.32 111.715 1868.7 128.714C1863.99 137.985 1859.42 147.353 1855.13 156.819C1852.98 161.53 1850.91 166.277 1848.92 171.042C1846.86 175.969 1845.51 181.06 1843.5 185.996C1842.58 188.273 1846.36 190.039 1847.3 187.745C1848.92 183.684 1849.98 179.443 1851.62 175.408C1853.4 171.067 1855.25 166.761 1857.17 162.448C1861 153.822 1865.07 145.284 1869.28 136.843C1877.88 119.595 1887.05 102.596 1896.09 85.5683C1904.9 68.982 1913.25 52.2181 1921.7 35.4725C1929.59 19.8128 1937.76 4.25109 1945.15 -11.6642C1953.06 -28.8023 1960.2 -46.4051 1964.32 -64.8055C1964.92 -67.2325 1960.79 -68.0298 1960.24 -65.6362Z" fill="#DBDBDB"/>
<path d="M1885.66 153.89C1884.55 146.791 1883.64 139.644 1882.93 132.491C1882.11 124.392 1881.35 116.149 1881.91 108.079C1882.04 106.209 1879.75 104.94 1878.25 106.407C1868.32 116.08 1856.77 124.197 1847.03 134.018C1845.25 135.804 1848.46 138.381 1850.24 136.595C1859.98 126.774 1871.53 118.657 1881.46 108.984C1880.25 108.412 1879 107.857 1877.81 107.311C1877.22 115.551 1877.89 123.886 1878.73 132.121C1879.45 139.453 1880.37 146.779 1881.52 154.083C1881.88 156.514 1886.04 156.347 1885.66 153.89Z" fill="#DBDBDB"/>
<path d="M1936.77 139.092C1918.36 115.535 1912.46 87.7967 1907.19 60.1187C1907 59.0467 1905.74 57.8316 1904.44 58.3634C1884.57 66.7098 1864.28 74.159 1844.34 82.3602C1841.93 83.3336 1843.3 87.0108 1845.74 86.0208C1865.67 77.8197 1885.96 70.3705 1905.83 62.0241C1904.91 61.4249 1903.99 60.868 1903.07 60.2688C1908.48 88.5682 1914.53 117.038 1933.38 141.145C1934.92 143.188 1938.36 141.144 1936.77 139.092Z" fill="#DBDBDB"/>
<path d="M1964.77 83.9801C1947.98 62.7781 1940.2 36.8308 1932.76 12.094C1932.4 10.8578 1930.66 10.4241 1929.62 11.0536C1911.59 21.7491 1889.69 25.5448 1871.67 36.198C1869.46 37.4974 1871.81 40.7329 1874.05 39.4169C1892.05 28.7379 1913.96 24.968 1931.99 14.2725C1930.95 13.9342 1929.89 13.5702 1928.85 13.232C1936.42 38.3018 1944.35 64.5654 1961.35 86.0507C1962.95 88.0611 1966.37 85.9905 1964.77 83.9801Z" fill="#DBDBDB"/>
<path d="M1984.47 39.4343C1975.17 16.051 1962.62 -6.10956 1952.34 -29.16C1951.94 -30.073 1950.75 -30.8369 1949.68 -30.4122C1930.95 -23.1235 1909.46 -24.3533 1891.1 -16.0929C1888.72 -15.0265 1891.12 -11.8287 1893.47 -12.8785C1911.44 -20.9753 1932.68 -19.5966 1951.05 -26.7804C1950.15 -27.2008 1949.29 -27.6121 1948.39 -28.0325C1958.68 -5.02434 1971.22 17.1784 1980.52 40.5617C1981.46 42.8984 1985.39 41.7452 1984.47 39.4343Z" fill="#DBDBDB"/>
<path d="M883.754 94.8074C872.397 86.6641 858.844 79.1399 844.681 77.7872C831.249 76.4962 820.095 82.536 813.985 93.2864C808.422 103.07 806.619 114.869 806.132 126.097C805.588 138.648 806.758 151.723 810.663 164.066C813.444 172.8 817.721 182.193 826.88 186.752C834.873 190.746 844.075 189.857 852.076 187.667C861.832 185.008 870.781 180.291 879.102 175.097C886.925 170.25 894.947 164.873 901.368 158.479C909.633 150.254 914.124 139.218 910.568 127.463C906.471 113.92 895.042 104.404 884.603 94.7467C883.198 93.4508 880.926 95.1506 882.341 96.4674C891.216 104.667 900.889 112.55 905.925 123.445C910.278 132.833 909.515 142.643 903.904 150.794C898.772 158.205 890.803 163.686 883.266 168.845C875.914 173.856 868.125 178.464 859.736 181.934C852.144 185.088 843.387 187.727 834.702 186.359C825.727 184.931 819.905 178.627 816.393 171.008C811.515 160.476 809.687 148.763 809.142 137.643C808.58 126.129 809.384 114.3 812.896 103.476C816.796 91.4235 825.417 80.8807 839.962 80.4303C855.012 79.9553 870.156 88.527 882.067 97.0513C883.677 98.1908 885.342 95.9554 883.754 94.8074Z" fill="#D3CBCF"/>
<path d="M886.922 94.2699C884.174 91.8526 881.646 88.9478 880.95 85.4684C880.377 82.5911 881.2 79.7622 882.535 77.2813C885.665 71.4869 891.028 66.987 895.502 62.1627C897.836 59.662 900.086 57.0445 901.546 53.9387C900.592 53.6902 899.617 53.4503 898.642 53.2104C896.065 67.0714 898.828 85.3033 884.416 93.4591C882.828 94.3629 884.804 96.5848 886.403 95.7019C901.615 87.0795 898.912 68.198 901.635 53.603C901.941 51.9547 899.346 51.5299 898.72 52.8538C895.9 58.8009 890.108 63.2704 885.71 68.0899C881.463 72.7492 876.904 78.5331 877.901 85.273C878.525 89.4818 881.39 93.1044 884.67 96.012C886.108 97.2705 888.381 95.5701 886.922 94.2699Z" fill="#D3CBCF"/>
<path d="M887.881 94.9564C896.157 88.1888 907.226 83.1123 918.844 85.9497C918.461 85.1847 918.078 84.4197 917.694 83.6548C914.598 88.3313 909.199 91.402 903.76 93.2905C898.32 95.179 891.779 96.1809 885.995 94.0256C884.129 93.3422 883.138 95.9807 885.005 96.6641C891.429 99.0485 898.558 98.1182 904.664 96.0913C910.715 94.0607 916.806 90.5869 920.214 85.3782C920.835 84.4164 920.205 83.3677 919.064 83.0833C906.695 80.0605 894.664 85.4701 885.859 92.6522C884.439 93.856 886.45 96.1389 887.881 94.9564Z" fill="#D3CBCF"/>
<path d="M885.323 94.3771C868.709 87.2923 861.89 68.2733 869.553 53.9235C868.716 54.0341 867.879 54.1448 867.053 54.2263C869.876 57.1575 872.999 59.8213 875.801 62.7609C878.467 65.5321 881.266 68.7201 881.7 72.4789C881.912 74.2735 884.794 73.9177 884.613 72.1352C883.699 64.1172 874.7 58.1304 869.273 52.502C868.437 51.6482 867.26 51.8942 866.773 52.8049C858.395 68.5267 866.391 89.2286 884.374 96.906C886.142 97.6856 887.102 95.1276 885.323 94.3771Z" fill="#D3CBCF"/>
<path d="M840.49 87.7682C838.881 89.6063 838.439 92.0098 837.922 94.3174C837.854 94.6446 838.064 95.1122 838.298 95.3702C838.532 95.6282 838.938 95.8681 839.313 95.8947C839.721 95.9336 840.13 95.8719 840.412 95.6101C840.726 95.3607 840.837 95.0667 840.905 94.6892C840.893 94.7688 840.815 95.0752 840.905 94.6892C840.916 94.6095 840.949 94.5213 840.961 94.4416C840.995 94.3032 841.018 94.1438 841.051 94.0053C841.119 93.7284 841.175 93.4306 841.264 93.1451C841.398 92.6414 841.532 92.1378 841.698 91.6465C841.765 91.4198 841.863 91.2055 841.962 90.9911C842.017 90.8944 842.061 90.7767 842.116 90.68C842.138 90.6212 842.16 90.5624 842.192 90.5245C842.313 90.3016 842.017 90.8441 842.138 90.6212C842.389 90.1963 842.662 89.8131 842.966 89.4422C843.444 88.9026 843.207 87.8697 842.534 87.46C841.829 87.0379 840.99 87.1697 840.49 87.7682Z" fill="#D3CBCF"/>
<path d="M866.087 101.264C865.794 102.583 865.255 103.825 864.64 105.022C864.596 105.089 864.574 105.148 864.53 105.216C864.629 105.051 864.585 105.119 864.519 105.245C864.442 105.401 864.355 105.536 864.278 105.692C864.114 105.982 863.928 106.282 863.753 106.552C863.381 107.15 862.987 107.757 862.594 108.365C862.2 108.972 862.277 109.894 863.026 110.351C863.679 110.77 864.68 110.75 865.117 110.075C866.67 107.655 868.298 105.179 868.94 102.342C869.03 101.955 869.055 101.645 868.865 101.268C868.706 100.955 868.354 100.617 868.011 100.502C867.303 100.281 866.256 100.52 866.087 101.264Z" fill="#D3CBCF"/>
<path d="M893.807 122.664C893.794 122.945 893.78 123.226 893.767 123.507C893.755 123.637 893.743 123.767 893.709 123.906C893.697 123.986 893.675 124.045 893.664 124.124C893.663 124.175 893.596 124.402 893.653 124.154C893.709 123.906 893.642 124.133 893.642 124.183C893.63 124.263 893.608 124.322 893.596 124.402C893.563 124.54 893.508 124.687 893.474 124.826C893.396 125.082 893.286 125.326 893.176 125.57C893.11 125.697 893.066 125.815 893 125.941C892.891 126.135 893 125.941 893.033 125.853C892.99 125.92 892.968 125.979 892.924 126.046C892.782 126.278 892.618 126.518 892.454 126.758C892.291 126.999 892.095 127.227 891.92 127.446C891.801 127.568 891.703 127.682 891.583 127.805C891.497 127.889 891.302 128.017 891.605 127.796C891.529 127.851 891.485 127.919 891.41 127.974C891.127 128.236 890.931 128.514 890.916 128.896C890.881 129.236 891.027 129.679 891.293 129.95C891.815 130.47 892.834 130.744 893.421 130.211C894.485 129.188 895.367 128.062 895.994 126.737C896.532 125.596 896.803 124.336 896.815 123.078C896.833 122.344 896.282 121.559 895.433 121.469C894.648 121.404 893.826 121.879 893.807 122.664Z" fill="#D3CBCF"/>
<path d="M845.185 109.969C844.199 112.109 843.2 114.329 843.166 116.767C843.148 117.499 843.698 118.281 844.544 118.371C845.305 118.445 846.146 117.962 846.165 117.18C846.16 116.607 846.24 116.05 846.343 115.485C846.343 115.435 846.365 115.376 846.387 115.317C846.341 115.686 846.354 115.456 846.365 115.376C846.399 115.238 846.432 115.1 846.466 114.961C846.533 114.685 846.632 114.421 846.71 114.165C847.074 113.096 847.546 112.084 848.017 111.073C848.335 110.423 847.829 109.473 847.091 109.24C846.268 108.941 845.525 109.26 845.185 109.969Z" fill="#D3CBCF"/>
<path d="M868.045 124.814C867.584 126.874 866.619 128.808 865.719 130.717C865.412 131.389 865.907 132.32 866.647 132.553C867.46 132.832 868.227 132.504 868.545 131.802C869.424 129.902 870.388 127.968 870.871 125.899C870.961 125.513 870.985 125.203 870.795 124.827C870.637 124.514 870.286 124.178 869.943 124.063C869.569 123.936 869.139 123.905 868.804 124.063C868.481 124.191 868.124 124.457 868.045 124.814Z" fill="#D3CBCF"/>
<path d="M824.557 119.183C823.738 122.828 822.471 126.351 821.652 129.997C821.495 130.708 821.744 131.559 822.577 131.828C823.271 132.078 824.313 131.841 824.47 131.079C825.289 127.434 826.557 123.91 827.375 120.265C827.532 119.553 827.284 118.703 826.45 118.433C825.767 118.204 824.725 118.442 824.557 119.183Z" fill="#D3CBCF"/>
<path d="M847.434 134.379C847.03 136.284 847.053 138.269 846.649 140.173C846.581 140.499 846.79 140.965 847.023 141.221C847.256 141.478 847.66 141.717 848.034 141.744C848.439 141.782 848.846 141.721 849.127 141.46C849.44 141.212 849.55 140.919 849.617 140.543C850.022 138.638 849.999 136.653 850.403 134.748C850.471 134.423 850.261 133.957 850.029 133.7C849.796 133.444 849.392 133.205 849.018 133.178C848.612 133.14 848.205 133.201 847.925 133.462C847.622 133.731 847.502 134.003 847.434 134.379Z" fill="#D3CBCF"/>
<path d="M878.636 146.26C877.091 148.657 875.771 151.191 874 153.451C873.541 154.035 873.747 155.01 874.433 155.442C875.152 155.887 876.048 155.809 876.529 155.166C878.289 152.885 879.62 150.372 881.165 147.975C881.56 147.366 881.483 146.441 880.732 145.983C880.067 145.593 879.063 145.613 878.636 146.26Z" fill="#D3CBCF"/>
<path d="M832.404 145.429C831.853 147.921 830.833 150.249 830.261 152.749C830.172 153.134 830.147 153.444 830.336 153.819C830.494 154.131 830.845 154.467 831.187 154.582C831.881 154.832 832.924 154.594 833.082 153.832C833.632 151.34 834.652 149.012 835.224 146.512C835.314 146.126 835.338 145.817 835.149 145.442C834.991 145.129 834.641 144.793 834.299 144.679C833.615 144.45 832.572 144.687 832.404 145.429Z" fill="#D3CBCF"/>
<path d="M857.784 154.379C856.685 156.719 855.64 159.061 854.681 161.471C854.427 162.147 854.837 163.063 855.609 163.308C856.392 163.575 857.223 163.271 857.509 162.557C858.447 160.156 859.514 157.804 860.612 155.465C860.92 154.792 860.424 153.861 859.684 153.628C858.869 153.349 858.103 153.677 857.784 154.379Z" fill="#D3CBCF"/>
<path d="M833.964 168.43C832.997 170.517 832.04 172.575 831.062 174.642C830.754 175.315 831.251 176.247 831.991 176.481C832.806 176.76 833.573 176.431 833.892 175.729C834.87 173.662 835.816 171.583 836.794 169.516C837.102 168.843 836.605 167.911 835.865 167.678C835.072 167.39 834.305 167.719 833.964 168.43Z" fill="#D3CBCF"/>
<path d="M819.443 160.43C819.448 161.003 819.367 161.56 819.265 162.125C819.265 162.175 819.243 162.234 819.221 162.293C819.267 161.924 819.254 162.155 819.243 162.234C819.209 162.372 819.175 162.511 819.142 162.649C819.075 162.925 818.976 163.19 818.898 163.445C818.533 164.514 818.062 165.526 817.591 166.537C817.284 167.209 817.779 168.138 818.517 168.371C819.329 168.649 820.094 168.321 820.412 167.621C821.399 165.48 822.397 163.261 822.432 160.822C822.45 160.09 821.9 159.308 821.053 159.218C820.281 159.173 819.44 159.656 819.443 160.43Z" fill="#D3CBCF"/>
<path d="M856.236 170.208C856.067 170.952 855.812 171.681 855.429 172.36C855.483 172.263 855.528 172.145 855.604 172.039C855.143 172.874 854.543 173.638 853.89 174.349C853.672 174.585 853.592 175.044 853.654 175.371C853.726 175.719 853.98 176.12 854.291 176.323C854.623 176.518 855.009 176.667 855.397 176.613C855.807 176.552 856.1 176.36 856.372 176.077C857.613 174.682 858.641 173.121 859.047 171.304C859.137 170.917 859.162 170.606 858.972 170.23C858.813 169.916 858.461 169.578 858.118 169.463C857.742 169.336 857.311 169.306 856.976 169.463C856.673 169.583 856.315 169.85 856.236 170.208Z" fill="#D3CBCF"/>
<path d="M899.171 138.764C898.072 141.103 896.674 143.31 896.068 145.855C895.978 146.241 895.954 146.552 896.144 146.928C896.302 147.241 896.653 147.578 896.996 147.693C897.693 147.943 898.738 147.705 898.896 146.941C899.47 144.384 900.901 142.189 901.999 139.85C902.317 139.198 901.811 138.246 901.071 138.013C900.246 137.713 899.511 138.053 899.171 138.764Z" fill="#D3CBCF"/>
<path d="M822.117 100.256C821.069 101.873 820.256 103.698 819.818 105.599C819.728 105.985 819.703 106.296 819.893 106.671C820.051 106.985 820.402 107.321 820.745 107.436C821.12 107.563 821.55 107.594 821.885 107.436C822.198 107.287 822.555 107.021 822.644 106.685C822.982 105.199 823.565 103.791 824.299 102.474C824.244 102.571 824.2 102.688 824.123 102.793C824.266 102.512 824.419 102.251 824.594 101.981C824.801 101.674 824.89 101.338 824.829 100.961C824.758 100.614 824.504 100.214 824.194 100.011C823.542 99.5921 822.543 99.612 822.117 100.256Z" fill="#D3CBCF"/>
<path d="M885.817 93.1384C887.32 88.889 888.738 84.5733 890.658 80.4842C890.966 79.8118 890.459 78.9109 889.731 78.6482C888.929 78.34 888.14 78.727 887.833 79.3993C885.923 83.5093 884.516 87.7956 883.002 92.0744C882.759 92.7714 883.159 93.6144 883.929 93.9103C884.689 94.1853 885.584 93.8562 885.817 93.1384Z" fill="#D3CBCF"/>
<path d="M1738.28 792.281C1759.47 773.054 1781.16 752.302 1793.33 726.876C1799.25 714.501 1801.36 701.662 1802.36 688.438C1803.39 674.721 1802.8 659.832 1808.65 646.778C1811.93 639.475 1816.85 632.884 1822.59 627.014C1825.52 624.002 1828.64 621.196 1831.93 618.527C1833.62 617.15 1835.36 615.831 1837.1 614.536C1838.45 613.542 1840.02 611.758 1841.58 611.217C1843.73 610.464 1842.7 607.39 1840.55 608.143C1838.03 609.023 1836.8 610.635 1834.76 612.207C1831.89 614.444 1828.98 616.635 1826.25 619.021C1820.79 623.77 1815.82 629.036 1811.67 634.822C1807.74 640.345 1804.65 646.401 1802.84 652.791C1800.95 659.417 1800.46 666.375 1799.93 673.134C1798.83 687.323 1798.83 701.826 1794.27 715.672C1789.62 729.742 1780.87 742.71 1771.18 754.362C1760.5 767.199 1748.22 778.84 1735.74 790.157C1734.07 791.662 1736.64 793.797 1738.28 792.281Z" fill="#DCD3D7"/>
<path d="M1782.02 735.873C1766.04 742.409 1748.16 729.198 1739.14 718.783C1734.47 713.402 1729.92 706.628 1729.74 699.365C1729.66 696.624 1730.41 693.863 1732.35 691.63C1734.6 689.056 1739.1 686.581 1742.6 686.696C1746.78 686.841 1747.23 692.031 1747.63 695.002C1748.16 698.966 1748.3 703.143 1749.71 706.896C1752.62 714.624 1763.31 718.657 1771.67 715.101C1779.9 711.583 1783.01 701.875 1779.95 694.684C1776.64 686.87 1768.99 681.064 1762.37 675.743C1755.98 670.618 1746.79 665.147 1744.29 657.182C1742.47 651.326 1743.95 644.983 1747.13 639.513C1747.69 638.561 1749.73 634.271 1751.31 634.22C1751.4 634.23 1752.4 636.057 1752.64 636.586C1755.57 643.448 1755.71 652.077 1761.04 657.81C1766.02 663.184 1775.73 664.676 1780.25 657.522C1784.85 650.224 1782.97 642.232 1780.39 635.076C1778.82 630.71 1776.77 625.382 1779.36 620.793C1780.88 618.131 1786.97 612.909 1790.62 614.801C1794.42 616.761 1792.59 623.492 1795.5 626.317C1800.71 631.4 1809.46 620.626 1810.54 616.538C1811.82 611.519 1810.31 606.308 1808.87 601.583C1807.2 596.091 1805.37 590.531 1804.91 584.736C1804.4 578.467 1806.2 572.628 1810.71 567.6C1814.46 563.41 1819.73 560.643 1825.12 558.715C1830.19 556.88 1836.51 555.333 1841.62 557.189C1846.26 558.89 1847.68 562.678 1845.55 566.84C1842.62 572.601 1834.16 579.354 1836.63 586.192C1837.77 589.345 1841.43 591.843 1845.02 592.027C1848.98 592.225 1852.87 590.229 1856.26 588.434C1860.75 586.043 1865.05 583.145 1869.86 581.411C1875.06 579.547 1879.99 580.624 1884.65 582.848C1894.07 587.339 1900.92 597.749 1894.05 607.407C1887.51 616.607 1875.24 615.748 1865.27 618.407C1855.12 621.105 1837.99 634.462 1851.75 642.325C1856.99 645.318 1863.29 646.764 1869.13 648.554C1874.67 650.234 1881.35 651.943 1885.49 655.89C1889.09 659.327 1887.97 665.47 1883.19 668.059C1877.95 670.896 1870.52 668.706 1865.37 667.374C1853.07 664.248 1836 656.444 1823.33 664.002C1815.11 668.909 1812.42 678.713 1814.8 686.835C1817.51 696.065 1827.31 702.828 1837.83 698.552C1842.72 696.578 1846.93 693.161 1852.05 691.775C1856.84 690.48 1863.18 691.498 1866.84 694.506C1872.57 699.16 1867.31 706.796 1862.69 710.723C1856.14 716.312 1847.66 718.613 1839.35 716.777C1833.07 715.366 1822.5 711.117 1817.14 717.235C1811.11 724.082 1817.99 730.026 1822.46 734.688C1825.44 737.82 1826.08 741.2 1822.43 744.592C1819.22 747.582 1814.38 747.714 1810.3 747.162C1802.36 746.065 1794.21 742.528 1788 737.992C1786.25 736.705 1783.77 739.237 1785.54 740.535C1791.99 745.267 1800.22 748.897 1808.45 750.307C1816.17 751.635 1826.56 749.738 1828.52 741.021C1830.36 732.913 1818.87 730.657 1818.43 723.52C1817.75 712.85 1835.26 719.527 1840.48 720.466C1848.46 721.942 1856.97 719.236 1863.43 714.385C1868.74 710.406 1874.17 703.835 1872.66 697.306C1870.94 689.868 1860.17 686.882 1852.85 688.252C1847.57 689.238 1843.24 692.362 1838.51 694.676C1832.36 697.679 1825.95 697.055 1821.58 692.105C1815.06 684.668 1816.03 670.881 1826.55 666.036C1833.37 662.91 1841.65 664.699 1848.41 666.323C1856 668.165 1863.37 670.843 1871.15 672.11C1876.68 673.006 1883.33 673.173 1887.59 668.816C1891.46 664.884 1892.51 658.921 1889.18 654.765C1885.59 650.282 1879.07 648.224 1873.56 646.437C1867.3 644.432 1860.64 642.971 1854.79 640.1C1850.02 637.737 1848.35 634.62 1852.27 630.236C1855.37 626.775 1859.4 623.789 1863.92 622.252C1869.03 620.498 1874.45 620.114 1879.72 619.033C1889.86 616.964 1899.4 610.658 1900.36 600.328C1901.25 591.044 1893.89 583.235 1885.53 579.513C1881.28 577.624 1876.39 576.38 1871.55 577.474C1866.75 578.555 1862.39 581.181 1858.19 583.553C1854.51 585.64 1849.1 589.515 1844.59 588.653C1839.85 587.774 1838.97 583.628 1840.87 579.994C1843.99 573.991 1852.63 567.044 1849.63 559.911C1845.64 550.38 1831.41 552.764 1823.15 555.915C1812.53 559.967 1803.15 567.574 1801.47 578.576C1800.63 584.095 1801.74 589.577 1803.13 594.85C1804.63 600.536 1807.2 606.279 1807.35 612.236C1807.44 615.191 1806.68 618.13 1804.43 620.466C1803.46 621.476 1800.63 624.183 1798.94 624.153C1797.13 624.127 1797 621.459 1796.7 620.089C1795.58 615.236 1793.69 609.916 1786.98 611.531C1782.35 612.656 1777.75 615.929 1775.76 620.063C1773.71 624.259 1774.52 628.857 1775.78 632.994C1777.11 637.343 1779.39 641.513 1779.44 646.131C1779.48 649.728 1778.86 654.351 1776.11 657.245C1772.64 660.929 1766.57 658.528 1763.77 655.629C1760.94 652.718 1759.88 648.221 1758.8 644.495C1757.86 641.312 1755.98 628.214 1749.49 631.368C1745.29 633.408 1742.66 639.838 1741.32 643.66C1739.54 648.667 1739.29 654.088 1741.04 658.984C1743.87 666.882 1752.47 672.332 1758.93 677.491C1765.72 682.915 1775.03 689.309 1777.22 697.947C1778.33 702.348 1776.5 707.844 1772.47 710.77C1767.63 714.299 1760.82 713.34 1756.5 710.099C1749.37 704.731 1753.02 694.333 1749.22 687.267C1745.57 680.412 1735.61 683.854 1730.67 688.358C1725.78 692.826 1725.35 699.249 1726.92 704.874C1731.03 719.745 1746.1 733.061 1761.15 738.434C1768 740.876 1775.82 741.833 1782.97 738.912C1785.22 738.109 1784.17 735 1782.02 735.873Z" fill="#DCD3D7"/>
<path d="M-176.13 882.481C-130.915 871.475 -86.7693 853 -54.4825 818.831C-14.1141 776.114 3.78 720.949 30.6805 671.255C38.2619 657.227 46.8557 643.838 56.2277 630.732C62.5409 621.892 70.6035 610.135 81.6098 606.269C80.7269 605.703 79.844 605.137 79.0009 604.552C78.5834 609.549 74.7449 613.686 71.256 617.376C67.8301 620.994 64.3659 624.474 61.2487 628.347C53.6273 637.852 47.1063 648.243 41.297 658.77C33.0328 673.728 25.4677 689.534 20.1984 705.525C17.5141 713.675 15.21 722.29 15.9645 730.653C16.0565 731.647 17.1318 732.214 18.1353 732.041C29.6192 730.227 40.9529 727.026 52.2336 724.026C65.7217 720.436 79.1549 716.671 92.7195 713.354C98.3018 711.991 103.889 710.692 109.542 709.693C113.147 709.058 117.202 708.195 120.825 708.654C121.521 708.755 122.514 708.984 122.604 709.075C122.722 709.175 122.657 708.874 122.574 709.221C122.551 709.275 122.154 710.515 122.033 710.725C121.171 712.001 116.511 713.383 114.389 714.001C99.569 718.312 84.2189 720.77 69.2062 724.022C58.9235 726.257 48.679 728.629 38.4713 731.292C33.0979 732.692 27.7462 734.192 22.4277 735.765C20.8837 736.229 18.8603 736.537 17.4991 737.403C15.9439 738.423 14.5322 740.391 13.3356 741.776C1.69282 755.017 -6.63546 770.731 -15.3011 785.652C-24.9573 802.304 -35.7256 818.099 -49.7964 831.921C-66.3071 848.093 -85.6995 861.528 -106.923 871.258C-127.697 880.761 -149.674 887.199 -171.048 895.015C-170.23 895.28 -169.384 895.554 -168.566 895.819C-171.104 891.513 -173.345 886.432 -172.506 881.198C-172.138 878.892 -175.934 878.688 -176.302 880.995C-177.192 886.803 -174.923 892.577 -172.096 897.412C-171.573 898.297 -170.682 898.617 -169.614 898.217C-149.762 890.966 -129.458 884.918 -110.042 876.499C-90.3474 867.953 -72.2771 856.578 -56.1844 842.603C-40.4746 829.001 -27.4754 813.09 -17.0136 795.672C-7.65672 780.104 0.671166 763.861 11.8351 749.253C14.1916 746.191 17.1306 741.451 20.87 739.895C26.115 737.738 32.1422 736.612 37.6067 735.149C48.229 732.34 58.9444 729.841 69.675 727.533C85.2549 724.154 101.34 721.778 116.617 716.994C119.393 716.121 123.717 715.003 125.277 712.305C126.233 710.655 126.948 708.212 125.52 706.661C123.835 704.808 120.449 704.924 118.026 705.04C113.372 705.274 108.728 706.163 104.157 707.108C77.4581 712.576 51.4603 721.536 24.7882 727.168C22.395 727.667 19.9851 728.131 17.5702 728.53C18.3071 728.986 19.0041 729.461 19.741 729.918C19.0649 722.202 21.2616 714.143 23.7242 706.667C26.5309 698.152 30.1108 689.857 33.933 681.671C42.3806 663.632 51.8683 645.711 64.6802 629.864C70.8168 622.273 81.9498 614.777 82.7848 604.783C82.918 603.334 81.539 602.576 80.1759 603.067C70.8959 606.342 63.7864 615.017 58.0543 622.335C50.1844 632.351 43.0499 642.978 36.5192 653.769C21.6506 678.406 10.152 704.477 -2.24259 730.164C-14.932 756.471 -28.8876 782.057 -47.4895 805.359C-62.1489 823.749 -80.6673 839.208 -101.554 850.946C-125.007 864.121 -150.695 872.654 -176.667 878.979C-179.055 879.542 -178.558 883.063 -176.13 882.481Z" fill="#D7D7D7"/>
<path d="M40.3503 729.667C40.1432 715.397 48.5412 701.544 58.8953 690.968C69.586 680.06 83.8851 670.916 99.1895 668.048C107.322 666.517 115.189 667.293 122.626 670.073C132.161 673.656 140.564 678.447 151.533 676.825C161.317 675.387 170.623 671.558 180.266 669.381C187.636 667.73 195.284 667.491 202.501 668.877C215.721 671.445 227.128 679.726 230.469 692.363C234.428 707.371 228.063 724.778 212.986 733.23C206.067 737.106 198.318 739.264 190.616 740.777C182.667 742.335 174.439 742.638 166.789 745.711C152.556 751.413 146.179 764.721 134.854 773.755C118.95 786.444 94.8131 786.523 77.1813 780.641C67.8362 777.529 58.727 772.257 53.4352 764.281C48.1771 756.379 46.7212 746.651 42.1209 738.426C40.9889 736.423 37.4071 738.038 38.5677 740.05C42.8416 747.665 44.4339 756.462 48.76 764.031C53.1198 771.674 60.1716 777.195 68.3086 781.082C84.4514 788.783 104.823 790.291 122.767 784.276C130.878 781.573 137.587 776.811 143.387 770.748C148.722 765.165 153.2 758.769 159.433 753.98C167.206 748.018 175.949 746.811 185.258 745.345C193.56 744.026 201.949 742.2 209.74 738.795C225.997 731.7 235.196 717.571 235.396 701.197C235.559 687.204 227.934 675.231 215.104 669.073C200.52 662.065 184.703 664.074 168.954 668.751C163.449 670.375 157.909 672.082 152.268 673.031C145.65 674.138 139.859 672.992 133.933 670.638C125.045 667.138 116.725 663.223 106.591 663.572C90.8809 664.105 75.5574 671.911 63.5463 681.794C51.3786 691.816 41.0864 705.152 37.5974 719.928C36.7676 723.408 36.4661 726.869 36.5145 730.349C36.5631 732.758 40.4056 731.983 40.3503 729.667Z" fill="#D7D7D7"/>
<path d="M60.1612 724.716C65.5364 707.11 82.8901 694.31 97.0415 682.691C98.9339 681.143 96.6449 678.417 94.741 679.992C80.1153 691.982 62.2351 705.353 56.6639 723.575C55.9834 725.796 59.4692 726.965 60.1612 724.716Z" fill="#D7D7D7"/>
<path d="M65.6793 731.557C81.3028 743.079 102.59 754.852 123.719 747.109C126.142 746.227 124.59 742.87 122.196 743.762C102.595 750.941 82.4295 739.021 68.0622 728.463C66.1137 727.012 63.7308 730.106 65.6793 731.557Z" fill="#D7D7D7"/>
<path d="M125.733 716.397C153.249 708.084 182.884 712.126 209.427 699.63C211.725 698.534 210.234 695.261 207.936 696.357C181.747 708.714 152.361 704.626 125.187 712.827C122.801 713.514 123.295 717.13 125.733 716.397Z" fill="#D7D7D7"/>
<path d="M127.67 717.757C139.136 718.95 149.164 724.386 159.823 727.832C170.452 731.269 181.32 732.071 192.259 727.533C194.63 726.537 193.108 723.193 190.737 724.189C168.174 733.555 149.446 716.24 128.13 714.032C125.626 713.756 125.184 717.52 127.67 717.757Z" fill="#D7D7D7"/>
<path d="M128.381 711.568C132.647 696.37 150.903 691.252 164.917 687.854C167.328 687.26 166.831 683.727 164.391 684.312C149.078 688.04 129.471 693.907 124.839 710.423C124.202 712.683 127.732 713.856 128.381 711.568Z" fill="#D7D7D7"/>
<path d="M118.939 685.736C111.307 692.741 106.586 701.502 101.402 710.081C100.876 710.958 100.862 711.972 101.752 712.572C102.47 713.054 103.874 712.959 104.4 712.082C109.392 703.81 113.905 695.166 121.244 688.404C123.028 686.797 120.734 684.102 118.939 685.736Z" fill="#D7D7D7"/>
<path d="M101.591 726.543C110.394 734.025 122.074 737.869 133.029 741.861C135.323 742.713 136.804 739.165 134.51 738.313C123.846 734.416 112.574 730.707 103.986 723.425C102.145 721.883 99.7794 725.011 101.591 726.543Z" fill="#D7D7D7"/>
<path d="M68.0578 731.307C66.1643 737.888 66.7826 745.092 68.4412 751.445C70.1048 757.861 73.1796 764.984 79.5141 768.313C81.6051 769.395 83.9446 766.399 81.8654 765.289C76.2674 762.354 73.5717 756.011 72.1569 750.3C70.7689 744.754 69.9553 738.237 71.6184 732.426C72.2462 730.19 68.7091 729.016 68.0578 731.307Z" fill="#D7D7D7"/>
<path d="M95.4122 747.798C95.1398 756.585 97.2059 766.879 105.367 771.678C107.389 772.864 109.765 769.868 107.726 768.645C100.701 764.527 98.998 755.51 99.2283 747.964C99.2619 746.972 98.6539 746.117 97.5516 746.043C96.58 746.043 95.4341 746.833 95.4122 747.798Z" fill="#D7D7D7"/>
<path d="M17.3969 689.462C11.7672 684.739 9.11113 677.263 7.41497 670.409C5.68547 663.483 4.76736 656.163 4.90567 648.935C5.01064 641.634 5.8954 634.242 7.37005 626.978C8.79143 619.916 10.8592 612.469 15.3068 606.323C19.108 601.091 23.5762 597.854 30.1494 597.171C36.2844 596.533 42.4981 597.075 48.5479 595.349C60.0377 592.041 65.9107 582.236 70.764 572.631C76.7032 560.85 82.6491 548.976 96.5596 544.142C110.002 539.5 125.04 540.961 136.701 547.416C147.988 553.688 156.978 565.366 156.778 578.504C156.622 589.035 147.999 595.985 140.079 602.569C131.201 609.967 123.282 618.143 123.286 629.662C123.318 636.414 125.778 642.453 128.096 648.603C129.003 651.018 130.07 653.892 128.882 656.535C127.114 660.396 121.866 662.662 118.204 664.381C115.953 665.432 117.408 668.681 119.671 667.602C125.212 665.024 132.448 661.34 133.198 654.872C133.806 649.419 130.251 644.212 128.757 639.234C126.878 633.039 126.215 626.333 129.146 620.039C131.449 615.072 135.624 611.085 139.84 607.455C147.963 600.468 157.653 593.738 160.038 583.117C162.835 570.694 155.825 557.69 146.789 549.836C136.773 541.103 122.617 536.806 108.517 537.99C93.7858 539.219 81.6553 546.158 74.0383 558.552C67.7455 568.815 64.1281 583.626 52.3907 589.943C40.9166 596.096 26.7819 589.777 16.6315 599.26C10.4943 604.985 7.24846 612.55 5.1507 620.143C2.65671 629.2 1.41581 638.568 1.14298 647.781C0.903258 656.006 1.83991 664.268 3.91787 672.119C5.90246 679.659 8.9268 687.254 15.0865 692.398C16.8381 693.963 19.1552 690.936 17.3969 689.462Z" fill="#D7D7D7"/>
<path d="M117.618 570.637C117.384 601.506 91.727 633.359 57.9477 636.61C55.5213 636.842 56.047 640.359 58.4735 640.127C93.7841 636.724 121.161 603.138 121.374 570.807C121.399 568.554 117.638 568.321 117.618 570.637Z" fill="#D7D7D7"/>
<path d="M97.376 569.813C92.6342 583.189 85.3257 595.994 76.1936 607.273C74.691 609.144 77.6444 611.135 79.1747 609.273C88.53 597.76 96.04 584.622 100.878 570.939C101.599 568.748 98.1366 567.604 97.376 569.813Z" fill="#D7D7D7"/>
<path d="M44.9074 602.754C42.2134 607.991 41.5716 613.895 41.7674 619.482C41.9481 624.877 43.035 630.474 45.6645 635.145C46.7796 637.121 50.2686 635.524 49.1535 633.548C46.7294 629.223 45.7673 624.163 45.5375 619.186C45.2977 614.082 45.9798 608.687 48.4216 603.895C49.5246 601.741 45.9989 600.626 44.9074 602.754Z" fill="#D7D7D7"/>
<path d="M19.6487 615.519C18.0693 624.316 17.7059 633.352 18.7342 642.061C19.7041 650.376 22.0063 659.186 28.0193 665.305C29.6347 666.95 32.6679 664.569 31.0525 662.925C25.3088 657.08 23.3256 648.654 22.4539 640.712C21.5455 632.479 21.9658 623.99 23.4325 615.685C23.858 613.395 20.0576 613.191 19.6487 615.519Z" fill="#D7D7D7"/>
<path d="M107.045 644.583C98.5905 652.102 87.7482 657.014 76.7854 659.672C66.5221 662.144 55.2785 663.002 45.59 659.585C43.3158 658.786 41.8382 662.264 44.1124 663.063C54.421 666.712 66.4248 665.91 77.3471 663.271C88.9569 660.474 100.465 655.303 109.431 647.348C111.276 645.698 108.93 642.914 107.045 644.583Z" fill="#D7D7D7"/>
<path d="M83.7675 643.409C77.2427 647.627 73.441 654.002 69.8187 660.404C69.3167 661.293 70.004 662.384 70.8443 662.658C71.8807 662.995 72.8295 662.407 73.2921 661.536C76.6174 655.687 80.1159 649.957 86.0421 646.1C86.912 645.548 86.985 644.241 86.4122 643.559C85.7503 642.786 84.6489 642.83 83.7675 643.409Z" fill="#D7D7D7"/>
<path d="M97.7886 594.78C97.5084 602.777 96.4002 610.845 97.0323 618.798C97.2143 621.088 100.97 620.358 100.788 618.068C100.192 610.406 101.286 602.673 101.547 594.949C101.579 593.968 100.978 593.121 99.8925 593.047C98.9471 593.018 97.82 593.798 97.7886 594.78Z" fill="#D7D7D7"/>
<path d="M76.94 576.079C78.5125 583.825 80.085 591.571 81.6574 599.316C82.1227 601.557 85.9022 600.845 85.4486 598.578C83.8761 590.832 82.3036 583.086 80.7312 575.34C80.2942 573.109 76.4864 573.811 76.94 576.079Z" fill="#D7D7D7"/>
</g>
</svg>
